;           Gerber:: Drill Report             
;           =====================             
;    Unit                   : inch
;    Format                 : 2.6, Leading Zeros Suppressed
;    Co-ordinate data Mode  : Absolute Data mode
;+----------------------------------------+
;|  D R I L L   T O O L S   T A B L E     |
;+----------------------------------------+
;|    Drill    |    Tool    |    Drill    |
;|    Tool     |    Size    |    Count    |
;+----------------------------------------+
;|          T01|    0.015000|          111|
;|          T02|    0.030000|           12|
;|          T03|    0.036000|           40|
;|          T04|    0.130000|            6|
;+----------------------------------------+

M48
INCH,LZ,00.000000
T01C0.015000
T02C0.030000
T03C0.036000
T04C0.130000
%
M72
G90
T01
X0214Y0335
X00867169Y01762
X0171547Y005625
X00690218Y017245
X01137518Y02703014
X014425Y01235
X01335Y0074
X01215Y0138
X00690218Y021565
X00867169Y02194
X01965Y0219
X0215
X01965Y02375
X0215
X01617451Y006375
X015745Y00887451
X018475Y02627549
X01325Y024625
X0152
X0005Y01775
X0285Y00147375
X00225Y01775
X0265Y00147375
X0245
X0225
X0045
X0065
X0085
X0025Y02375
X0105Y00147375
X0005Y02375
X00125Y0115
X0205Y00147375
X00125Y0095
X0185Y00147375
X00125Y0075
X0165Y00147375
X00125Y0055
X0145Y00147375
X00125Y0035
X0125Y00147375
X0305
X0262875Y008145
X0282875Y008025
X0302875
X0322875
X02775Y01625
X02975
X03175
X0345Y01475
X033
X03405Y0243
Y0223
Y0203
Y0292
Y0312
Y0332
Y0352
X0315Y0388
X0295
X0275
X0255
X0235
X0215
X0195
X0175
X0155
X0135
X0115
X0095
X0075
X0055
X0035
X00135Y0366
Y0346
Y0326
Y0306
X0025Y0285
X0045
X0065
X01512254Y027025
X01345
X02535Y02925
X02715
X02935
X03135
Y01947625
X02825Y02525
X02975
X03175
X033Y00875
X0345
X03405Y0372
X0126Y0258
X00559999Y01920241
X0073Y0192
X0197Y02525
X01165Y0138
X0233Y0335
X0217Y02565
Y02485
X0233Y01665
Y01585
X017155Y007695
X0059Y017975
X00592169Y022315
X016635Y026295
X015625Y012425
X014575Y0131
X0104Y023875
X0093Y02455
T02
X02975Y03245
X02575
X0224Y0097
Y0104
X02875Y03245
X02775
X02675
X0138Y03495
X01455
X0224Y00682592
Y0037
Y0044
T03
X00561Y0102225
X00758
X00955
X01152
Y0121925
X00955
X00758
X00561
X01224662Y02092202
X01421662
X01618662
X01815662
Y02289202
X01618662
X01421662
X01224662
Y01558202
X01421662
X01618662
X01815662
Y01755202
X01618662
X01421662
X01224662
X00561Y0048825
X00758
X00955
X01152
Y0068525
X00955
X00758
X00561
X01315254Y02961046
X01512254
X01709254
X01906254
Y03158046
X01709254
X01512254
X01315254
T04
X03144Y02219
X01856Y00931
X033Y002
Y038
X002Y002
Y038

M30
