G04 ===== Begin FILE IDENTIFICATION =====*
G04 File Format:  Gerber RS274X*
G04 ===== End FILE IDENTIFICATION =====*
%FSLAX26Y26*%
%MOIN*%
%SFA1.0000B1.0000*%
%OFA0.0B0.0*%
%ADD14R,0.040000X0.120000*%
%ADD15R,0.035000X0.050000*%
%ADD16R,0.050000X0.050000*%
%ADD17R,0.250000X0.100000*%
%ADD18R,0.050000X0.035000*%
%ADD19R,0.120000X0.040000*%
%ADD20C,0.030000*%
%ADD21R,0.030000X0.060000*%
%ADD22R,0.050000X0.025000*%
%ADD23R,0.050000X0.125000*%
%ADD24R,0.100000X0.030000*%
%ADD25C,0.050000*%
%ADD26R,0.036000X0.032000*%
%ADD27R,0.032000X0.036000*%
%ADD28R,0.025000X0.050000*%
%ADD29C,0.072000*%
%ADD30R,0.017500X0.035000*%
%ADD31R,0.029993X0.060000*%
%ADD32R,0.017831X0.032000*%
%ADD33R,0.015000X0.060000*%
%ADD34R,0.216750X0.036008*%
%ADD35R,0.050000X0.060000*%
%ADD36R,0.050000X0.030000*%
%ADD37R,0.090000X0.030000*%
%ADD38R,0.320000X0.005000*%
%ADD39R,0.050000X0.361000*%
%ADD40R,0.050000X0.120000*%
%ADD41R,0.050000X0.061250*%
%ADD42R,0.250000X0.055250*%
%ADD43R,3.500000X0.294750*%
%ADD44R,0.250000X0.150000*%
%ADD45R,3.500000X0.240000*%
%ADD46R,0.085000X0.060000*%
%ADD47R,0.030000X0.035000*%
%ADD48R,0.032000X0.041951*%
%ADD49R,0.041951X0.032000*%
%ADD50R,0.200000X0.150000*%
%ADD51R,0.096750X0.050000*%
%ADD52R,0.060000X0.050000*%
%ADD53R,0.250000X0.955250*%
%ADD54R,0.050000X0.045000*%
%ADD55R,0.050000X0.040000*%
%ADD56R,0.070000X0.055000*%
%ADD57R,0.070000X0.065250*%
%ADD58R,0.330000X0.125000*%
%ADD59R,0.216750X0.125000*%
%ADD60R,0.070000X0.050000*%
%ADD61R,0.050000X0.115000*%
%ADD62R,0.035000X0.100000*%
%ADD63R,0.220000X0.100000*%
%ADD64R,0.671250X0.205000*%
%ADD65R,0.346000X0.100000*%
%ADD66R,0.100000X0.280250*%
%ADD67R,0.665000X0.280250*%
%ADD68R,0.250000X0.860000*%
%ADD69R,0.247254X0.150000*%
%ADD70R,0.120250X0.320000*%
%ADD71R,0.440500X0.060000*%
%ADD72R,0.050000X0.110000*%
%LNpc1*%
%IPPOS*%
%LPD*%
G75*
G36*
G01X766000Y2645000D02*
G01X746000Y2665000D01*
G01Y2750000D01*
G01X816000D01*
G01Y2665000D01*
G01X794000Y2645000D01*
G01X766000D01*
G37*
G36*
G01X766000Y2560000D02*
G01Y2645000D01*
G01X794000D01*
G01Y2560000D01*
G01X766000D01*
G37*
G36*
G01X826000Y2560000D02*
G01Y2645000D01*
G01X854000D01*
G01Y2560000D01*
G01X826000D01*
G37*
G36*
G01X706000Y2560000D02*
G01Y2645000D01*
G01X734000D01*
G01Y2560000D01*
G01X706000D01*
G37*
D14*
X2512000Y1005000D03*
X2282000D03*
D15*
X452500Y2585000D03*
D16*
X385000D03*
D15*
X452500Y2675000D03*
X377500D03*
G36*
G01X2415000Y2595000D02*
G01X2835000D01*
G01Y2455000D01*
G01X2415000D01*
G01Y2595000D01*
G37*
G36*
G01X2705000Y2720000D02*
G01X2835000D01*
G01Y2630000D01*
G01X2705000D01*
G01Y2720000D01*
G37*
G36*
G01X2705000Y2420000D02*
G01X2835000D01*
G01Y2330000D01*
G01X2705000D01*
G01Y2420000D01*
G37*
G36*
G01X2415000Y2420000D02*
G01X2545000D01*
G01Y2330000D01*
G01X2415000D01*
G01Y2420000D01*
G37*
G36*
G01X2415000Y2720000D02*
G01X2545000D01*
G01Y2630000D01*
G01X2415000D01*
G01Y2720000D01*
G37*
D17*
X125000Y1900000D03*
Y2250000D03*
G36*
G01X10000Y2030000D02*
G01Y2120000D01*
G01X250000D01*
G01Y2030000D01*
G01X10000D01*
G37*
D17*
X125000Y2500000D03*
Y2850000D03*
G36*
G01X10000Y2630000D02*
G01Y2720000D01*
G01X250000D01*
G01Y2630000D01*
G01X10000D01*
G37*
D17*
X125000Y1300000D03*
Y1650000D03*
G36*
G01X10000Y1430000D02*
G01Y1520000D01*
G01X250000D01*
G01Y1430000D01*
G01X10000D01*
G37*
D17*
X3375000Y2500000D03*
Y2850000D03*
G36*
G01X3490000Y2630000D02*
G01Y2720000D01*
G01X3250000D01*
G01Y2630000D01*
G01X3490000D01*
G37*
D17*
X3375000Y1600000D03*
Y1950000D03*
G36*
G01X3490000Y1730000D02*
G01Y1820000D01*
G01X3250000D01*
G01Y1730000D01*
G01X3490000D01*
G37*
G36*
G01X2415000Y1695000D02*
G01X2835000D01*
G01Y1555000D01*
G01X2415000D01*
G01Y1695000D01*
G37*
G36*
G01X2705000Y1820000D02*
G01X2835000D01*
G01Y1730000D01*
G01X2705000D01*
G01Y1820000D01*
G37*
G36*
G01X2705000Y1520000D02*
G01X2835000D01*
G01Y1430000D01*
G01X2705000D01*
G01Y1520000D01*
G37*
G36*
G01X2415000Y1520000D02*
G01X2545000D01*
G01Y1430000D01*
G01X2415000D01*
G01Y1520000D01*
G37*
G36*
G01X2415000Y1820000D02*
G01X2545000D01*
G01Y1730000D01*
G01X2415000D01*
G01Y1820000D01*
G37*
D18*
X1260000Y2702500D03*
D16*
Y2635000D03*
D18*
X1170000Y2702500D03*
Y2627500D03*
X1557500Y1310000D03*
D16*
Y1242500D03*
D18*
X1467500Y1310000D03*
Y1235000D03*
X940000Y2387500D03*
D16*
Y2455000D03*
D18*
X1030000Y2387500D03*
Y2462500D03*
D19*
X1010500Y2790000D03*
Y3020000D03*
D20*
X2140000Y3350000D03*
D21*
X640000Y2585000D03*
X530000D03*
D22*
X1011250Y2667500D03*
Y2742500D03*
D21*
X2310000Y1290000D03*
X2200000D03*
D23*
X525000Y3822500D03*
X625000D03*
X725000D03*
X825000D03*
X925000D03*
Y3482500D03*
X825000D03*
X725000D03*
X625000D03*
X525000D03*
X2575000Y3822500D03*
X2675000D03*
X2775000D03*
X2875000D03*
X2975000D03*
Y3482500D03*
X2875000D03*
X2775000D03*
X2675000D03*
X2575000D03*
D20*
X867169Y1762000D03*
G36*
G01X2849000Y515000D02*
G01X2869000Y495000D01*
G01Y410000D01*
G01X2799000D01*
G01Y495000D01*
G01X2821000Y515000D01*
G01X2849000D01*
G37*
G36*
G01X2849000Y600000D02*
G01Y515000D01*
G01X2821000D01*
G01Y600000D01*
G01X2849000D01*
G37*
G36*
G01X2789000Y600000D02*
G01Y515000D01*
G01X2761000D01*
G01Y600000D01*
G01X2789000D01*
G37*
G36*
G01X2909000Y600000D02*
G01Y515000D01*
G01X2881000D01*
G01Y600000D01*
G01X2909000D01*
G37*
D22*
X655000Y2952500D03*
Y3027500D03*
D24*
X1105000Y3560000D03*
Y3750000D03*
D14*
X2512000Y405000D03*
X2282000D03*
D22*
X2975000Y3332500D03*
Y3407500D03*
X2875000Y3332500D03*
Y3407500D03*
X2975000Y3072500D03*
Y3147500D03*
X2875000Y3072500D03*
Y3147500D03*
X1255000Y3557500D03*
Y3632500D03*
X791000Y3027500D03*
Y2952500D03*
D17*
X3375000Y1000000D03*
Y1350000D03*
G36*
G01X3490000Y1130000D02*
G01Y1220000D01*
G01X3250000D01*
G01Y1130000D01*
G01X3490000D01*
G37*
D17*
X3375000Y400000D03*
Y750000D03*
G36*
G01X3490000Y530000D02*
G01Y620000D01*
G01X3250000D01*
G01Y530000D01*
G01X3490000D01*
G37*
D20*
X1715470Y562500D03*
D21*
X345000Y1475000D03*
X235000D03*
X2310000Y1775000D03*
X2200000D03*
G36*
G01X2849000Y1115000D02*
G01X2869000Y1095000D01*
G01Y1010000D01*
G01X2799000D01*
G01Y1095000D01*
G01X2821000Y1115000D01*
G01X2849000D01*
G37*
G36*
G01X2849000Y1200000D02*
G01Y1115000D01*
G01X2821000D01*
G01Y1200000D01*
G01X2849000D01*
G37*
G36*
G01X2789000Y1200000D02*
G01Y1115000D01*
G01X2761000D01*
G01Y1200000D01*
G01X2789000D01*
G37*
G36*
G01X2909000Y1200000D02*
G01Y1115000D01*
G01X2881000D01*
G01Y1200000D01*
G01X2909000D01*
G37*
D25*
X2975000Y3245000D03*
D20*
X690218Y1724500D03*
X1137518Y2703014D03*
D21*
X3130000Y575000D03*
X3020000D03*
D25*
X2575000Y3245000D03*
D21*
X3095000Y1775000D03*
X2985000D03*
D20*
X1442500Y1235000D03*
X1335000Y740000D03*
X1215000Y1380000D03*
D26*
X735169Y2156500D03*
X849169Y2194000D03*
X735169Y2231500D03*
D27*
X1847500Y2672500D03*
X1810000Y2786500D03*
X1772500Y2672500D03*
D25*
X2240000Y970000D03*
D20*
X690218Y2156500D03*
X867169Y2194000D03*
D28*
X1603000Y562500D03*
X1678000D03*
D22*
X2603750Y492500D03*
Y417500D03*
D26*
X1572500Y637500D03*
X1458500Y600000D03*
X1572500Y562500D03*
D25*
X2240000Y1040000D03*
D26*
X1572500Y844500D03*
X1458500Y807000D03*
X1572500Y769500D03*
D21*
X2310000Y1475000D03*
X2200000D03*
X2310000Y2675000D03*
X2200000D03*
X2310000Y2190000D03*
X2200000D03*
X2310000Y2375000D03*
X2200000D03*
D20*
X1965000Y2190000D03*
X2150000D03*
X1965000Y2375000D03*
X2150000D03*
X1617451Y637500D03*
X1574500Y887451D03*
X1847500Y2627549D03*
D21*
X340000Y2075000D03*
X230000D03*
D28*
X629669Y1799500D03*
X704669D03*
D26*
X735169Y1724500D03*
X849169Y1762000D03*
X735169Y1799500D03*
D28*
X629669Y2231500D03*
X704669D03*
D20*
X1325000Y2462500D03*
D21*
X1955000Y2525000D03*
X1845000D03*
D20*
X1520000Y2462500D03*
D29*
X1152000Y1022250D03*
X955000D03*
X758000D03*
X561000D03*
X1152000Y1219250D03*
X955000D03*
X758000D03*
X561000D03*
D22*
X2575000Y3332500D03*
Y3407500D03*
D21*
X3095000Y2675000D03*
X2985000D03*
D28*
X2566250Y725000D03*
X2491250D03*
D21*
X2573750Y831008D03*
X2463750D03*
D22*
X2603750Y1092500D03*
Y1017500D03*
D28*
X1776000Y2629500D03*
X1701000D03*
D20*
X50000Y1775000D03*
D21*
X2505000Y575000D03*
X2395000D03*
D20*
X2850000Y147375D03*
X225000Y1775000D03*
X2650000Y147375D03*
D29*
X1815662Y2092202D03*
X1618662D03*
X1421662D03*
X1224662D03*
X1815662Y2289202D03*
X1618662D03*
X1421662D03*
X1224662D03*
D20*
X2450000Y147375D03*
D29*
X1815662Y1558202D03*
X1618662D03*
X1421662D03*
X1224662D03*
X1815662Y1755202D03*
X1618662D03*
X1421662D03*
X1224662D03*
D20*
X2250000Y147375D03*
X450000D03*
D25*
X2875000Y3245000D03*
D20*
X650000Y147375D03*
D25*
X2775000Y3245000D03*
D20*
X850000Y147375D03*
X250000Y2375000D03*
X1050000Y147375D03*
X50000Y2375000D03*
X125000Y1150000D03*
X2050000Y147375D03*
X125000Y950000D03*
X1850000Y147375D03*
X125000Y750000D03*
X1650000Y147375D03*
X125000Y550000D03*
X1450000Y147375D03*
X125000Y350000D03*
X1250000Y147375D03*
X3050000D03*
X2628750Y814500D03*
X2828750Y802500D03*
X3028750D03*
X3228750D03*
X2775000Y1625000D03*
X2975000D03*
X3175000D03*
X3450000Y1475000D03*
X3300000D03*
X3405000Y2430000D03*
Y2230000D03*
Y2030000D03*
Y2920000D03*
Y3120000D03*
Y3320000D03*
Y3520000D03*
X3150000Y3880000D03*
X2950000D03*
X2750000D03*
X2550000D03*
X2350000D03*
X2150000D03*
X1950000D03*
X1750000D03*
X1550000D03*
X1350000D03*
X1150000D03*
X950000D03*
X750000D03*
X550000D03*
X350000D03*
X135000Y3660000D03*
Y3460000D03*
Y3260000D03*
Y3060000D03*
X250000Y2850000D03*
X450000D03*
X650000D03*
D21*
X3130000Y1175000D03*
X3020000D03*
X2505000D03*
X2395000D03*
D20*
X1512254Y2702500D03*
X1345000D03*
D22*
X2775000Y3072500D03*
Y3147500D03*
D20*
X2535000Y2925000D03*
X2715000D03*
X2935000D03*
X3135000D03*
D22*
X2675000Y3072500D03*
Y3147500D03*
X2775000Y3332500D03*
Y3407500D03*
D20*
X3135000Y1947625D03*
D22*
X2675000Y3332500D03*
Y3407500D03*
D25*
Y3245000D03*
D20*
X2825000Y2525000D03*
X2975000D03*
X3175000D03*
X3300000Y875000D03*
X3450000D03*
X3405000Y3720000D03*
D29*
X1152000Y488250D03*
X955000D03*
X758000D03*
X561000D03*
X1152000Y685250D03*
X955000D03*
X758000D03*
X561000D03*
D22*
X2575000Y3072500D03*
Y3147500D03*
D20*
X1260000Y2580000D03*
D25*
X1380000Y3495000D03*
X1455000D03*
X2240000Y682592D03*
Y370000D03*
Y440000D03*
D21*
X345000Y2675000D03*
X235000D03*
D20*
X559999Y1920241D03*
D29*
X1906254Y2961046D03*
X1709254D03*
X1512254D03*
X1315254D03*
X1906254Y3158046D03*
X1709254D03*
X1512254D03*
X1315254D03*
D20*
X730000Y1920000D03*
D28*
X1603000Y769500D03*
X1678000D03*
D21*
X1885000Y3350000D03*
X1995000D03*
D20*
X1970000Y2525000D03*
X1165000Y1380000D03*
D21*
X1160000Y2580000D03*
X1050000D03*
D20*
X2330000Y3350000D03*
X2170000Y2565000D03*
Y2485000D03*
X2330000Y1665000D03*
Y1585000D03*
D21*
X700000Y1920000D03*
X590000D03*
D20*
X1715500Y769500D03*
X590000Y1797500D03*
X592169Y2231500D03*
X1663500Y2629500D03*
X1562500Y1242500D03*
X1457500Y1310000D03*
X1040000Y2387500D03*
X930000Y2455000D03*
G36*
G01X355000Y2060000D02*
G01X395000D01*
G01Y1598000D01*
G01X413000Y1580000D01*
G01X845000D01*
G01Y1485000D01*
G01Y1470000D01*
G01X875000D01*
G01Y1485000D01*
G01Y1592000D01*
G01X857000Y1610000D01*
G01X425000D01*
G01Y2072000D01*
G01X407000Y2090000D01*
G01X355000D01*
G01X340000D01*
G01Y2060000D01*
G01X355000D01*
G37*
G36*
G01X1505000Y2462500D02*
G01Y2107202D01*
G01X1421662D01*
G01X1406662D01*
G01Y2077202D01*
G01X1421662D01*
G01X1517000D01*
G01X1535000Y2095202D01*
G01Y2462500D01*
G01Y2477500D01*
G01X1505000D01*
G01Y2462500D01*
G37*
G36*
G01X1040000Y2447500D02*
G01Y2477500D01*
G01X1340000D01*
G01Y2447500D01*
G01X1040000D01*
G37*
G36*
G01X385000Y1440000D02*
G01Y593000D01*
G01X403000Y575000D01*
G01X740000D01*
G01Y488250D01*
G01Y473250D01*
G01X770000D01*
G01Y488250D01*
G01Y587000D01*
G01X752000Y605000D01*
G01X415000D01*
G01Y1440000D01*
G01Y1455000D01*
G01X385000D01*
G01Y1440000D01*
G37*
G36*
G01X845000Y1485000D02*
G01Y1131213D01*
G01X744393Y1030607D01*
G01X733787Y1020000D01*
G01X755000Y998787D01*
G01X765607Y1009393D01*
G01X869000Y1112787D01*
G01X875000Y1127272D01*
G01Y1485000D01*
G01Y1500000D01*
G01X845000D01*
G01Y1485000D01*
G37*
G36*
G01X925000Y2370000D02*
G01Y2258000D01*
G01X943000Y2240000D01*
G01X1040000D01*
G01Y1222250D01*
G01X1058000Y1204250D01*
G01X1152000D01*
G01X1167000D01*
G01Y1234250D01*
G01X1152000D01*
G01X1070000D01*
G01Y2252000D01*
G01X1052000Y2270000D01*
G01X955000D01*
G01Y2370000D01*
G01Y2385000D01*
G01X925000D01*
G01Y2370000D01*
G37*
D30*
X1433750Y1235000D03*
D21*
X730000Y1920000D03*
D31*
X560003D03*
G36*
G01X1421662Y2304202D02*
G01X1310000D01*
G01Y1745000D01*
G01X1421662D01*
G01X1436662D01*
G01Y1775000D01*
G01X1421662D01*
G01X1340000D01*
G01Y2274202D01*
G01X1421662D01*
G01X1436662D01*
G01Y2304202D01*
G01X1421662D01*
G37*
G36*
G01X1512254Y3173046D02*
G01X1406662D01*
G01Y2289202D01*
G01Y2274202D01*
G01X1436662D01*
G01Y2289202D01*
G01Y3143046D01*
G01X1512254D01*
G01X1527254D01*
G01Y3173046D01*
G01X1512254D01*
G37*
G36*
G01X1497254Y2961046D02*
G01Y2702500D01*
G01Y2687500D01*
G01X1527254D01*
G01Y2702500D01*
G01Y2961046D01*
G01Y2976046D01*
G01X1497254D01*
G01Y2961046D01*
G37*
G36*
G01X2315000Y1555000D02*
G01Y1695000D01*
G01X2415000D01*
G01Y1555000D01*
G01X2315000D01*
G37*
D32*
X876085Y1762000D03*
D33*
X1977500Y2525000D03*
G36*
G01X2155000Y2455000D02*
G01Y2595000D01*
G01X2415000D01*
G01Y2455000D01*
G01X2155000D01*
G37*
D34*
X2370375Y718004D03*
G36*
G01X1694254Y2961046D02*
G01Y2771500D01*
G01X1794000D01*
G01X1809000D01*
G01Y2801500D01*
G01X1794000D01*
G01X1724254D01*
G01Y2961046D01*
G01Y2976046D01*
G01X1694254D01*
G01Y2961046D01*
G37*
G36*
G01X1440500Y822000D02*
G01X1410000D01*
G01Y870000D01*
G01X970000D01*
G01Y1022250D01*
G01Y1037250D01*
G01X940000D01*
G01Y1022250D01*
G01Y840000D01*
G01X1380000D01*
G01Y792000D01*
G01X1440500D01*
G01X1455500D01*
G01Y822000D01*
G01X1440500D01*
G37*
G36*
G01X1830000Y2540000D02*
G01X1621662D01*
G01X1603662Y2522000D01*
G01Y2289202D01*
G01Y2274202D01*
G01X1633662D01*
G01Y2289202D01*
G01Y2510000D01*
G01X1830000D01*
G01X1845000D01*
G01Y2540000D01*
G01X1830000D01*
G37*
D35*
X1170000Y2580000D03*
D36*
X1175000Y1380000D03*
D16*
X1260000Y2585000D03*
G36*
G01X1572495Y1327095D02*
G01X1574946Y1417782D01*
G01X1569325Y1431889D01*
G01X1430607Y1570607D01*
G01X1420000Y1581213D01*
G01X1398787Y1560000D01*
G01X1409393Y1549393D01*
G01X1544831Y1413956D01*
G01X1542505Y1327905D01*
G01X1542100Y1312911D01*
G01X1572089Y1312100D01*
G01X1572495Y1327095D01*
G37*
G36*
G01X1800662Y2274202D02*
G01X1830662D01*
G01Y2360000D01*
G01X1980000D01*
G01Y2390000D01*
G01X1818662D01*
G01X1800662Y2372000D01*
G01Y2274202D01*
G37*
D37*
X1315000Y2702500D03*
G36*
G01X3250000Y294750D02*
G01Y345000D01*
G01X3199978Y294750D01*
G01X3250000D01*
G37*
G36*
G01X250000Y294750D02*
G01Y345000D01*
G01X296015Y294750D01*
G01X250000D01*
G37*
G36*
G01X3250000Y3760000D02*
G01X3200000D01*
G01X3250000Y3710000D01*
G01Y3760000D01*
G37*
G36*
G01X250000Y3760000D02*
G01Y3710000D01*
G01X300000Y3760000D01*
G01X250000D01*
G37*
G36*
G01X2750000Y3160000D02*
G01Y3245000D01*
G01X2800000D01*
G01Y3160000D01*
G01X2750000D01*
G37*
G36*
G01X2650000Y3160000D02*
G01Y3245000D01*
G01X2700000D01*
G01Y3160000D01*
G01X2650000D01*
G37*
G36*
G01X2650000Y3245000D02*
G01Y3320000D01*
G01X2700000D01*
G01Y3245000D01*
G01X2650000D01*
G37*
G36*
G01X1152000Y1007250D02*
G01X1647000D01*
G01X1665000Y1025250D01*
G01Y1160000D01*
G01X2395000D01*
G01X2410000D01*
G01Y1190000D01*
G01X2395000D01*
G01X1653000D01*
G01X1635000Y1172000D01*
G01Y1037250D01*
G01X1152000D01*
G01X1137000D01*
G01Y1007250D01*
G01X1152000D01*
G37*
G36*
G01X2325000Y2350000D02*
G01Y2400000D01*
G01X2415000D01*
G01Y2350000D01*
G01X2325000D01*
G37*
D23*
X775000Y3482500D03*
G36*
G01X1310000Y1760000D02*
G01Y1395000D01*
G01X1215000D01*
G01X1200000D01*
G01Y1365000D01*
G01X1215000D01*
G01X1340000D01*
G01Y1760000D01*
G01Y1775000D01*
G01X1310000D01*
G01Y1760000D01*
G37*
G36*
G01X1870000Y3365000D02*
G01X1712254D01*
G01X1694254Y3347000D01*
G01Y3158046D01*
G01Y3143046D01*
G01X1724254D01*
G01Y3158046D01*
G01Y3335000D01*
G01X1870000D01*
G01X1885000D01*
G01Y3365000D01*
G01X1870000D01*
G37*
G36*
G01X2325000Y1450000D02*
G01Y1500000D01*
G01X2415000D01*
G01Y1450000D01*
G01X2325000D01*
G37*
D38*
X3090000Y2452500D03*
D39*
X2240000Y884500D03*
D40*
Y405000D03*
D41*
Y673375D03*
G36*
G01X1907507Y3141092D02*
G01X2155000D01*
G01Y2660000D01*
G01Y2645000D01*
G01X2185000D01*
G01Y2660000D01*
G01Y3153092D01*
G01X2167000Y3171092D01*
G01X1907507D01*
G01X1892507D01*
G01Y3141092D01*
G01X1907507D01*
G37*
G36*
G01X1906254Y2946046D02*
G01X2045000D01*
G01Y1778000D01*
G01X2063000Y1760000D01*
G01X2200000D01*
G01X2215000D01*
G01Y1790000D01*
G01X2200000D01*
G01X2075000D01*
G01Y2958046D01*
G01X2057000Y2976046D01*
G01X1906254D01*
G01X1891254D01*
G01Y2946046D01*
G01X1906254D01*
G37*
G36*
G01X1440500Y615000D02*
G01X940000D01*
G01Y488250D01*
G01Y473250D01*
G01X970000D01*
G01Y488250D01*
G01Y585000D01*
G01X1440500D01*
G01X1455500D01*
G01Y615000D01*
G01X1440500D01*
G37*
G36*
G01X1152000Y473250D02*
G01X2037000D01*
G01X2055000Y491250D01*
G01Y560000D01*
G01X2395000D01*
G01X2410000D01*
G01Y590000D01*
G01X2395000D01*
G01X2043000D01*
G01X2025000Y572000D01*
G01Y503250D01*
G01X1152000D01*
G01X1137000D01*
G01Y473250D01*
G01X1152000D01*
G37*
G36*
G01X2150000Y2175000D02*
G01X2195000D01*
G01X2210000D01*
G01Y2205000D01*
G01X2195000D01*
G01X2150000D01*
G01X2135000D01*
G01Y2175000D01*
G01X2150000D01*
G37*
G36*
G01X2150000Y2360000D02*
G01X2195000D01*
G01X2210000D01*
G01Y2390000D01*
G01X2195000D01*
G01X2150000D01*
G01X2135000D01*
G01Y2360000D01*
G01X2150000D01*
G37*
G36*
G01X1527254Y3158046D02*
G01Y3450000D01*
G01Y3465000D01*
G01X1497254D01*
G01Y3450000D01*
G01Y3158046D01*
G01Y3143046D01*
G01X1527254D01*
G01Y3158046D01*
G37*
G36*
G01X1815662Y2077202D02*
G01X1950000D01*
G01Y1478000D01*
G01X1968000Y1460000D01*
G01X2200000D01*
G01X2215000D01*
G01Y1490000D01*
G01X2200000D01*
G01X1980000D01*
G01Y2089202D01*
G01X1962000Y2107202D01*
G01X1815662D01*
G01X1800662D01*
G01Y2077202D01*
G01X1815662D01*
G37*
G36*
G01X2340000Y1275000D02*
G01X2767000D01*
G01X2785000Y1293000D01*
G01Y1425000D01*
G01Y1440000D01*
G01X2755000D01*
G01Y1425000D01*
G01Y1305000D01*
G01X2340000D01*
G01X2325000D01*
G01Y1275000D01*
G01X2340000D01*
G37*
G36*
G01X2340000Y2175000D02*
G01X2767000D01*
G01X2785000Y2193000D01*
G01Y2325000D01*
G01Y2340000D01*
G01X2755000D01*
G01Y2325000D01*
G01Y2205000D01*
G01X2340000D01*
G01X2325000D01*
G01Y2175000D01*
G01X2340000D01*
G37*
G36*
G01X2325000Y1750000D02*
G01Y1800000D01*
G01X2415000D01*
G01Y1750000D01*
G01X2325000D01*
G37*
G36*
G01X1800662Y1558202D02*
G01Y1293000D01*
G01X1818662Y1275000D01*
G01X2200000D01*
G01X2215000D01*
G01Y1305000D01*
G01X2200000D01*
G01X1830662D01*
G01Y1558202D01*
G01Y1573202D01*
G01X1800662D01*
G01Y1558202D01*
G37*
G36*
G01X2325000Y2650000D02*
G01Y2700000D01*
G01X2415000D01*
G01Y2650000D01*
G01X2325000D01*
G37*
G36*
G01X1705000Y1758202D02*
G01X1723000Y1740202D01*
G01X1830662D01*
G01Y1770202D01*
G01X1735000D01*
G01Y2175000D01*
G01X1980000D01*
G01Y2205000D01*
G01X1723000D01*
G01X1705000Y2187000D01*
G01Y1758202D01*
G37*
D42*
X3375000Y322375D03*
D43*
X1750000Y147375D03*
D44*
X3375000Y875000D03*
D45*
X1750000Y3880000D03*
G36*
G01X3035000Y600000D02*
G01Y550000D01*
G01X2909000D01*
G01Y600000D01*
G01X3035000D01*
G37*
G36*
G01X2795000Y1750000D02*
G01X2945000D01*
G01X2970000D01*
G01Y1800000D01*
G01X2945000D01*
G01X2795000D01*
G01X2770000D01*
G01Y1750000D01*
G01X2795000D01*
G37*
G36*
G01X3140000Y1150000D02*
G01X3250000D01*
G01X3275000D01*
G01Y1200000D01*
G01X3250000D01*
G01X3140000D01*
G01X3115000D01*
G01Y1150000D01*
G01X3140000D01*
G37*
D46*
X372500Y1475000D03*
D44*
X125000Y1775000D03*
D47*
X1130000Y2702500D03*
D48*
X1574500Y881476D03*
D49*
X696194Y2156500D03*
D44*
X3375000Y1475000D03*
D50*
X310000Y2375000D03*
G36*
G01X2550000Y3160000D02*
G01Y3245000D01*
G01X2600000D01*
G01Y3160000D01*
G01X2550000D01*
G37*
G36*
G01X1152000Y670250D02*
G01X1332000D01*
G01X1350000Y688250D01*
G01Y740000D01*
G01Y755000D01*
G01X1320000D01*
G01Y740000D01*
G01Y700250D01*
G01X1152000D01*
G01X1137000D01*
G01Y670250D01*
G01X1152000D01*
G37*
G36*
G01X3135000Y2650000D02*
G01X3250000D01*
G01X3275000D01*
G01Y2700000D01*
G01X3250000D01*
G01X3135000D01*
G01X3110000D01*
G01Y2650000D01*
G01X3135000D01*
G37*
G36*
G01X2795000Y2650000D02*
G01X2945000D01*
G01X2970000D01*
G01Y2700000D01*
G01X2945000D01*
G01X2795000D01*
G01X2770000D01*
G01Y2650000D01*
G01X2795000D01*
G37*
G36*
G01X2761000Y1200000D02*
G01Y1150000D01*
G01X2520000D01*
G01Y1200000D01*
G01X2761000D01*
G37*
D51*
X2580375Y1005000D03*
D48*
X1847500Y2633524D03*
D52*
X1658500Y2629500D03*
X587169Y2231500D03*
X1720500Y769500D03*
Y562500D03*
D32*
X876085Y2194000D03*
D53*
X125000Y772375D03*
D54*
X2603750Y527500D03*
D51*
X2580375Y405000D03*
D55*
X791000Y2920000D03*
G36*
G01X2850000Y3160000D02*
G01Y3245000D01*
G01X2900000D01*
G01Y3160000D01*
G01X2850000D01*
G37*
G36*
G01X2950000Y3160000D02*
G01Y3245000D01*
G01X3000000D01*
G01Y3160000D01*
G01X2950000D01*
G37*
G36*
G01X2950000Y3245000D02*
G01Y3320000D01*
G01X3000000D01*
G01Y3245000D01*
G01X2950000D01*
G37*
G36*
G01X2850000Y3245000D02*
G01Y3320000D01*
G01X2900000D01*
G01Y3245000D01*
G01X2850000D01*
G37*
D56*
X2834000Y932500D03*
G36*
G01X3035000Y1200000D02*
G01Y1150000D01*
G01X2909000D01*
G01Y1200000D01*
G01X3035000D01*
G37*
D57*
X2834000Y327375D03*
D52*
X587169Y1799500D03*
D58*
X1115000Y3482500D03*
D54*
X2603750Y1127500D03*
G36*
G01X2761000Y600000D02*
G01Y550000D01*
G01X2520000D01*
G01Y600000D01*
G01X2761000D01*
G37*
D59*
X2370375Y798508D03*
D60*
X2834000Y985000D03*
D49*
X696194Y1724500D03*
D23*
X875000Y3482500D03*
D60*
X2834000Y385000D03*
D61*
X1255000Y3702500D03*
D60*
X781000Y2775000D03*
G36*
G01X2930000Y1895000D02*
G01Y2450000D01*
G01X3500000D01*
G01Y1895000D01*
G01X2930000D01*
G37*
G36*
G01X2905000Y1695000D02*
G01X3128500D01*
G01X3250000Y1650000D01*
G01Y1555000D01*
G01X2905000D01*
G01Y1695000D01*
G37*
G36*
G01X2905000Y2595000D02*
G01X3128500D01*
G01X3250000Y2550000D01*
G01Y2455000D01*
G01X2905000D01*
G01Y2595000D01*
G37*
G36*
G01X2550000Y3245000D02*
G01Y3320000D01*
G01X2600000D01*
G01Y3245000D01*
G01X2550000D01*
G37*
G36*
G01X2005000Y3325000D02*
G01X2435000D01*
G01Y2825000D01*
G01Y2800000D01*
G01X2485000D01*
G01Y2825000D01*
G01Y3375000D01*
G01X2005000D01*
G01X1980000D01*
G01Y3325000D01*
G01X2005000D01*
G37*
D62*
X452500Y2750000D03*
D63*
X360000Y2850000D03*
G36*
G01X2750000Y3245000D02*
G01Y3320000D01*
G01X2800000D01*
G01Y3245000D01*
G01X2750000D01*
G37*
G36*
G01X2795000Y1555000D02*
G01Y1695000D01*
G01X2905000D01*
G01Y1555000D01*
G01X2795000D01*
G37*
G36*
G01X2795000Y2455000D02*
G01Y2595000D01*
G01X2905000D01*
G01Y2455000D01*
G01X2795000D01*
G37*
D64*
X2914375Y802500D03*
G36*
G01X625000Y2560000D02*
G01Y2610000D01*
G01X706000D01*
G01Y2560000D01*
G01X625000D01*
G37*
D49*
X1611476Y637500D03*
D65*
X643000Y2850000D03*
D66*
X2535000Y2940125D03*
D67*
X2917500D03*
D68*
X125000Y3330000D03*
D69*
X1403627Y3495000D03*
D68*
X3375000Y3330000D03*
G36*
G01X986250Y2755000D02*
G01Y2810000D01*
G01X1034750D01*
G01Y2755000D01*
G01X986250D01*
G37*
D54*
X1011250Y2632500D03*
G36*
G01X854000Y2560000D02*
G01Y2610000D01*
G01X1045000D01*
G01Y2560000D01*
G01X854000D01*
G37*
G36*
G01X470000Y2560000D02*
G01Y2610000D01*
G01X515000D01*
G01Y2560000D01*
G01X470000D01*
G37*
D70*
X1010375Y3260000D03*
D55*
X655000Y2920000D03*
D71*
X850250Y3070000D03*
G36*
G01X3135000Y1750000D02*
G01X3250000D01*
G01X3275000D01*
G01Y1800000D01*
G01X3250000D01*
G01X3135000D01*
G01X3110000D01*
G01Y1750000D01*
G01X3135000D01*
G37*
G36*
G01X3170000Y550000D02*
G01X3250000D01*
G01X3275000D01*
G01Y600000D01*
G01X3250000D01*
G01X3170000D01*
G01X3145000D01*
G01Y550000D01*
G01X3170000D01*
G37*
D72*
X385000Y2505000D03*
D44*
X125000Y2375000D03*
M02*

