G04 ===== Begin FILE IDENTIFICATION =====*
G04 File Format:  Gerber RS274X*
G04 ===== End FILE IDENTIFICATION =====*
%FSLAX26Y26*%
%MOIN*%
%SFA1.0000B1.0000*%
%OFA0.0B0.0*%
%ADD14C,0.030000*%
%ADD15C,0.050000*%
%ADD16C,0.072000*%
%LNpc3*%
%IPPOS*%
%LPD*%
G75*
D14*
X2140000Y3350000D03*
X867169Y1762000D03*
X1715470Y562500D03*
D15*
X2975000Y3245000D03*
D14*
X690218Y1724500D03*
X1137518Y2703014D03*
D15*
X2575000Y3245000D03*
D14*
X1442500Y1235000D03*
X1335000Y740000D03*
X1215000Y1380000D03*
D15*
X2240000Y970000D03*
D14*
X690218Y2156500D03*
X867169Y2194000D03*
D15*
X2240000Y1040000D03*
D14*
X1965000Y2190000D03*
X2150000D03*
X1965000Y2375000D03*
X2150000D03*
X1617451Y637500D03*
X1574500Y887451D03*
X1847500Y2627549D03*
X1325000Y2462500D03*
X1520000D03*
D16*
X1152000Y1022250D03*
X955000D03*
X758000D03*
X561000D03*
X1152000Y1219250D03*
X955000D03*
X758000D03*
X561000D03*
D14*
X50000Y1775000D03*
X2850000Y147375D03*
X225000Y1775000D03*
X2650000Y147375D03*
D16*
X1815662Y2092202D03*
X1618662D03*
X1421662D03*
X1224662D03*
X1815662Y2289202D03*
X1618662D03*
X1421662D03*
X1224662D03*
D14*
X2450000Y147375D03*
D16*
X1815662Y1558202D03*
X1618662D03*
X1421662D03*
X1224662D03*
X1815662Y1755202D03*
X1618662D03*
X1421662D03*
X1224662D03*
D14*
X2250000Y147375D03*
X450000D03*
D15*
X2875000Y3245000D03*
D14*
X650000Y147375D03*
D15*
X2775000Y3245000D03*
D14*
X850000Y147375D03*
X250000Y2375000D03*
X1050000Y147375D03*
X50000Y2375000D03*
X125000Y1150000D03*
X2050000Y147375D03*
X125000Y950000D03*
X1850000Y147375D03*
X125000Y750000D03*
X1650000Y147375D03*
X125000Y550000D03*
X1450000Y147375D03*
X125000Y350000D03*
X1250000Y147375D03*
X3050000D03*
X2628750Y814500D03*
X2828750Y802500D03*
X3028750D03*
X3228750D03*
X2775000Y1625000D03*
X2975000D03*
X3175000D03*
X3450000Y1475000D03*
X3300000D03*
X3405000Y2430000D03*
Y2230000D03*
Y2030000D03*
Y2920000D03*
Y3120000D03*
Y3320000D03*
Y3520000D03*
X3150000Y3880000D03*
X2950000D03*
X2750000D03*
X2550000D03*
X2350000D03*
X2150000D03*
X1950000D03*
X1750000D03*
X1550000D03*
X1350000D03*
X1150000D03*
X950000D03*
X750000D03*
X550000D03*
X350000D03*
X135000Y3660000D03*
Y3460000D03*
Y3260000D03*
Y3060000D03*
X250000Y2850000D03*
X450000D03*
X650000D03*
X1512254Y2702500D03*
X1345000D03*
X2535000Y2925000D03*
X2715000D03*
X2935000D03*
X3135000D03*
Y1947625D03*
D15*
X2675000Y3245000D03*
D14*
X2825000Y2525000D03*
X2975000D03*
X3175000D03*
X3300000Y875000D03*
X3450000D03*
X3405000Y3720000D03*
D16*
X1152000Y488250D03*
X955000D03*
X758000D03*
X561000D03*
X1152000Y685250D03*
X955000D03*
X758000D03*
X561000D03*
D14*
X1260000Y2580000D03*
D15*
X1380000Y3495000D03*
X1455000D03*
X2240000Y682592D03*
Y370000D03*
Y440000D03*
D14*
X559999Y1920241D03*
D16*
X1906254Y2961046D03*
X1709254D03*
X1512254D03*
X1315254D03*
X1906254Y3158046D03*
X1709254D03*
X1512254D03*
X1315254D03*
D14*
X730000Y1920000D03*
X1970000Y2525000D03*
X1165000Y1380000D03*
X2330000Y3350000D03*
X2170000Y2565000D03*
Y2485000D03*
X2330000Y1665000D03*
Y1585000D03*
X1715500Y769500D03*
X590000Y1797500D03*
X592169Y2231500D03*
X1663500Y2629500D03*
X1562500Y1242500D03*
X1457500Y1310000D03*
X1040000Y2387500D03*
X930000Y2455000D03*
G36*
G01X1239662Y2289202D02*
G01Y2386156D01*
G01X1804408D01*
G01Y2289202D01*
G01Y2274202D01*
G01X1834408D01*
G01Y2289202D01*
G01Y2398156D01*
G01X1816408Y2416156D01*
G01X1227662D01*
G01X1209662Y2398156D01*
G01Y2289202D01*
G01Y2274202D01*
G01X1239662D01*
G01Y2289202D01*
G37*
G36*
G01X1832500Y2745000D02*
G01X1648500D01*
G01Y2629500D01*
G01Y2614500D01*
G01X1678500D01*
G01Y2629500D01*
G01Y2715000D01*
G01X1832500D01*
G01X1847500D01*
G01Y2745000D01*
G01X1832500D01*
G37*
G36*
G01X1209662Y1558202D02*
G01Y1449248D01*
G01X1227662Y1431248D01*
G01X1816408D01*
G01X1834408Y1449248D01*
G01Y1558202D01*
G01Y1573202D01*
G01X1804408D01*
G01Y1558202D01*
G01Y1461248D01*
G01X1239662D01*
G01Y1558202D01*
G01Y1573202D01*
G01X1209662D01*
G01Y1558202D01*
G37*
G36*
G01X2575000Y3260000D02*
G01X2100000D01*
G01Y2745000D01*
G01X1847500D01*
G01X1832500D01*
G01Y2715000D01*
G01X1847500D01*
G01X2130000D01*
G01Y3230000D01*
G01X2575000D01*
G01X2590000D01*
G01Y3260000D01*
G01X2575000D01*
G37*
G36*
G01X2690000Y3245000D02*
G01Y3615000D01*
G01X375000D01*
G01Y2216500D01*
G01X592169D01*
G01X607169D01*
G01Y2246500D01*
G01X592169D01*
G01X405000D01*
G01Y3585000D01*
G01X2660000D01*
G01Y3245000D01*
G01Y3230000D01*
G01X2690000D01*
G01Y3245000D01*
G37*
G36*
G01X1300254Y2961046D02*
G01Y2852092D01*
G01X1318254Y2834092D01*
G01X1907000D01*
G01X1925000Y2852092D01*
G01Y2961046D01*
G01Y2976046D01*
G01X1895000D01*
G01Y2961046D01*
G01Y2864092D01*
G01X1330254D01*
G01Y2961046D01*
G01Y2976046D01*
G01X1300254D01*
G01Y2961046D01*
G37*
G36*
G01X2860000Y3245000D02*
G01Y1086213D01*
G01X2715000Y941213D01*
G01Y784500D01*
G01X1715500D01*
G01X1700500D01*
G01Y754500D01*
G01X1715500D01*
G01X2745000D01*
G01Y928787D01*
G01X2890000Y1073787D01*
G01Y3245000D01*
G01Y3260000D01*
G01X2860000D01*
G01Y3245000D01*
G37*
G36*
G01X1330254Y3158046D02*
G01Y3255000D01*
G01X1895000D01*
G01Y3158046D01*
G01Y3143046D01*
G01X1925000D01*
G01Y3158046D01*
G01Y3267000D01*
G01X1907000Y3285000D01*
G01X1318254D01*
G01X1300254Y3267000D01*
G01Y3158046D01*
G01Y3143046D01*
G01X1330254D01*
G01Y3158046D01*
G37*
G36*
G01X2960000Y3245000D02*
G01Y3038787D01*
G01X3020000Y2978787D01*
G01Y1006213D01*
G01X2925000Y911213D01*
G01Y716213D01*
G01X2786287Y577500D01*
G01X1715470D01*
G01X1700470D01*
G01Y547500D01*
G01X1715470D01*
G01X2798713D01*
G01X2955000Y703787D01*
G01Y898787D01*
G01X3050000Y993787D01*
G01Y2991213D01*
G01X2990000Y3051213D01*
G01Y3245000D01*
G01Y3260000D01*
G01X2960000D01*
G01Y3245000D01*
G37*
G36*
G01X2790000Y3245000D02*
G01Y3680000D01*
G01X320000D01*
G01Y1782500D01*
G01X590000D01*
G01X605000D01*
G01Y1812500D01*
G01X590000D01*
G01X350000D01*
G01Y3650000D01*
G01X2760000D01*
G01Y3245000D01*
G01Y3230000D01*
G01X2790000D01*
G01Y3245000D01*
G37*
G36*
G01X1239662Y1755202D02*
G01Y1852358D01*
G01X1804408D01*
G01Y1755202D01*
G01Y1740202D01*
G01X1834408D01*
G01Y1755202D01*
G01Y1864358D01*
G01X1816408Y1882358D01*
G01X1227662D01*
G01X1209662Y1864358D01*
G01Y1755202D01*
G01Y1740202D01*
G01X1239662D01*
G01Y1755202D01*
G37*
G36*
G01X1209662Y2092202D02*
G01Y1983000D01*
G01X1227662Y1965000D01*
G01X1816408D01*
G01X1834408Y1983000D01*
G01Y2092202D01*
G01Y2107202D01*
G01X1804408D01*
G01Y2092202D01*
G01Y1995000D01*
G01X1239662D01*
G01Y2092202D01*
G01Y2107202D01*
G01X1209662D01*
G01Y2092202D01*
G37*
M02*

